{"title":"Ready Player One 2018 1080p BluRay x264 DTS [MW]","magnet":"magnet:?xt=urn:btih:643ee0a83ba34b691f78c2ae5272e83ba3855f76&dn=Ready+Player+One+2018+1080p+BluRay+x264+DTS+%5BMW%5D&tr=udp%3A%2F%2Ftracker.leechers-paradise.org%3A6969&tr=udp%3A%2F%2Fzer0day.ch%3A1337&tr=udp%3A%2F%2Fopen.demonii.com%3A1337&tr=udp%3A%2F%2Ftracker.coppersurfer.tk%3A6969&tr=udp%3A%2F%2Fexodus.desync.com%3A6969","uploader":"MFreaky","categoryP":"video","categoryS":"hd___movies","size":"4109142314","seeders":"3","leechers":"8","description":"\n\r\nIMDB <a href=\"\nhttps://www.imdb.com/title/tt1677720/\" rel=\"nofollow\" target=\"_NEW\">\nhttps://www.imdb.com/title/tt1677720/</a>\r\n\r\nVideo\r\nID : 1\r\nFormat : AVC\r\nFormat/Info : Advanced Video Codec\r\nFormat profile : High@L4.1\r\nFormat settings : CABAC / 4 Ref Frames\r\nFormat settings, CABAC : Yes\r\nFormat settings, RefFrames : 4 frames\r\nCodec ID : V_MPEG4/ISO/AVC\r\nDuration : 2 h 19 min\r\nBit rate : 2 500 kb/s\r\nWidth : 1 920 pixels\r\nHeight : 804 pixels\r\nDisplay aspect ratio : 2.40:1\r\nFrame rate mode : Constant\r\nFrame rate : 23.976 (24000/1001) FPS\r\nColor space : YUV\r\nChroma subsampling : 4:2:0\r\nBit depth : 8 bits\r\nScan type : Progressive\r\nBits/(Pixel*Frame) : 0.068\r\nStream size : 2.34 GiB (61%)\r\nWriting library : x264 core 155 r2901 7d0ff22\r\nDefault : Yes\r\nForced : No\r\n\r\nAudio\r\nID : 2\r\nFormat : DTS\r\nFormat/Info : Digital Theater Systems\r\nCodec ID : A_DTS\r\nDuration : 2 h 19 min\r\nBit rate mode : Constant\r\nBit rate : 1 509 kb/s\r\nChannel(s) : 6 channels\r\nChannel positions : Front: L C R, Side: L R, LFE\r\nSampling rate : 48.0 kHz\r\nFrame rate : 93.750 FPS (512 SPF)\r\nBit depth : 24 bits\r\nCompression mode : Lossy\r\nStream size : 1.48 GiB (39%)\r\nLanguage : English\r\nDefault : Yes\r\nForced : No","last_updated":"2018-08-23T12:09:45.093Z","parsed":{"xt":"urn:btih:643ee0a83ba34b691f78c2ae5272e83ba3855f76","dn":"Ready Player One 2018 1080p BluRay x264 DTS [MW]","tr":["udp://exodus.desync.com:6969","udp://open.demonii.com:1337","udp://tracker.coppersurfer.tk:6969","udp://tracker.leechers-paradise.org:6969","udp://zer0day.ch:1337"],"infoHash":"643ee0a83ba34b691f78c2ae5272e83ba3855f76","infoHashBuffer":{"type":"Buffer","data":[100,62,224,168,59,163,75,105,31,120,194,174,82,114,232,59,163,133,95,118]},"name":"Ready Player One 2018 1080p BluRay x264 DTS [MW]","announce":["udp://exodus.desync.com:6969","udp://open.demonii.com:1337","udp://tracker.coppersurfer.tk:6969","udp://tracker.leechers-paradise.org:6969","udp://zer0day.ch:1337"],"urlList":[]}}